<mxfile host="app.diagrams.net" agent="Mozilla/5.0 (Windows NT 10.0; Win64; x64) AppleWebKit/537.36 (KHTML, like Gecko) Chrome/130.0.0.0 Safari/537.36" version="24.8.1">
  <diagram name="Página-1" id="OM9QJlv7rs2KJ2Hx93Fb">
    <mxGraphModel dx="1034" dy="689" grid="1" gridSize="10" guides="1" tooltips="1" connect="1" arrows="1" fold="1" page="1" pageScale="1" pageWidth="827" pageHeight="1169" math="0" shadow="0">
      <root>
        <mxCell id="0" />
        <mxCell id="1" parent="0" />
        <mxCell id="q-Yn26P4vF6KLxeXFJKJ-1" value="Clínica" style="whiteSpace=wrap;html=1;align=center;" parent="1" vertex="1">
          <mxGeometry x="50" y="70" width="100" height="40" as="geometry" />
        </mxCell>
        <mxCell id="q-Yn26P4vF6KLxeXFJKJ-2" value="Paciente" style="whiteSpace=wrap;html=1;align=center;" parent="1" vertex="1">
          <mxGeometry x="140" y="300" width="100" height="40" as="geometry" />
        </mxCell>
        <mxCell id="q-Yn26P4vF6KLxeXFJKJ-3" value="nombre" style="ellipse;whiteSpace=wrap;html=1;align=center;" parent="1" vertex="1">
          <mxGeometry x="140" y="230" width="100" height="40" as="geometry" />
        </mxCell>
        <mxCell id="q-Yn26P4vF6KLxeXFJKJ-4" value="" style="endArrow=none;html=1;rounded=0;" parent="1" source="q-Yn26P4vF6KLxeXFJKJ-2" target="q-Yn26P4vF6KLxeXFJKJ-3" edge="1">
          <mxGeometry relative="1" as="geometry">
            <mxPoint x="150" y="470" as="sourcePoint" />
            <mxPoint x="310" y="470" as="targetPoint" />
          </mxGeometry>
        </mxCell>
        <mxCell id="q-Yn26P4vF6KLxeXFJKJ-5" value="CodPaciente" style="ellipse;whiteSpace=wrap;html=1;align=center;fontStyle=4;" parent="1" vertex="1">
          <mxGeometry x="260" y="260" width="100" height="40" as="geometry" />
        </mxCell>
        <mxCell id="q-Yn26P4vF6KLxeXFJKJ-6" value="" style="endArrow=none;html=1;rounded=0;" parent="1" source="q-Yn26P4vF6KLxeXFJKJ-5" target="q-Yn26P4vF6KLxeXFJKJ-2" edge="1">
          <mxGeometry relative="1" as="geometry">
            <mxPoint x="178" y="310" as="sourcePoint" />
            <mxPoint x="120" y="258" as="targetPoint" />
          </mxGeometry>
        </mxCell>
        <mxCell id="q-Yn26P4vF6KLxeXFJKJ-7" value="apellidos" style="ellipse;whiteSpace=wrap;html=1;align=center;" parent="1" vertex="1">
          <mxGeometry x="20" y="250" width="100" height="40" as="geometry" />
        </mxCell>
        <mxCell id="q-Yn26P4vF6KLxeXFJKJ-8" value="" style="endArrow=none;html=1;rounded=0;" parent="1" source="q-Yn26P4vF6KLxeXFJKJ-2" target="q-Yn26P4vF6KLxeXFJKJ-7" edge="1">
          <mxGeometry relative="1" as="geometry">
            <mxPoint x="154" y="420" as="sourcePoint" />
            <mxPoint x="296" y="590" as="targetPoint" />
          </mxGeometry>
        </mxCell>
        <mxCell id="q-Yn26P4vF6KLxeXFJKJ-9" value="teléfono" style="ellipse;whiteSpace=wrap;html=1;align=center;" parent="1" vertex="1">
          <mxGeometry y="300" width="100" height="40" as="geometry" />
        </mxCell>
        <mxCell id="q-Yn26P4vF6KLxeXFJKJ-10" value="" style="endArrow=none;html=1;rounded=0;" parent="1" source="q-Yn26P4vF6KLxeXFJKJ-2" target="q-Yn26P4vF6KLxeXFJKJ-9" edge="1">
          <mxGeometry relative="1" as="geometry">
            <mxPoint x="140" y="367" as="sourcePoint" />
            <mxPoint x="296" y="650" as="targetPoint" />
          </mxGeometry>
        </mxCell>
        <mxCell id="q-Yn26P4vF6KLxeXFJKJ-11" value="provincia" style="ellipse;whiteSpace=wrap;html=1;align=center;" parent="1" vertex="1">
          <mxGeometry x="20" y="350" width="100" height="40" as="geometry" />
        </mxCell>
        <mxCell id="q-Yn26P4vF6KLxeXFJKJ-12" value="" style="endArrow=none;html=1;rounded=0;" parent="1" source="q-Yn26P4vF6KLxeXFJKJ-2" target="q-Yn26P4vF6KLxeXFJKJ-11" edge="1">
          <mxGeometry relative="1" as="geometry">
            <mxPoint x="170" y="383" as="sourcePoint" />
            <mxPoint x="326" y="700" as="targetPoint" />
          </mxGeometry>
        </mxCell>
        <mxCell id="q-Yn26P4vF6KLxeXFJKJ-13" value="codPostal" style="ellipse;whiteSpace=wrap;html=1;align=center;" parent="1" vertex="1">
          <mxGeometry x="140" y="370" width="100" height="40" as="geometry" />
        </mxCell>
        <mxCell id="q-Yn26P4vF6KLxeXFJKJ-14" value="" style="endArrow=none;html=1;rounded=0;" parent="1" source="q-Yn26P4vF6KLxeXFJKJ-2" target="q-Yn26P4vF6KLxeXFJKJ-13" edge="1">
          <mxGeometry relative="1" as="geometry">
            <mxPoint x="289" y="340" as="sourcePoint" />
            <mxPoint x="436" y="703" as="targetPoint" />
          </mxGeometry>
        </mxCell>
        <mxCell id="q-Yn26P4vF6KLxeXFJKJ-15" value="fNacimiento" style="ellipse;whiteSpace=wrap;html=1;align=center;" parent="1" vertex="1">
          <mxGeometry x="260" y="350" width="100" height="40" as="geometry" />
        </mxCell>
        <mxCell id="q-Yn26P4vF6KLxeXFJKJ-16" value="" style="endArrow=none;html=1;rounded=0;" parent="1" source="q-Yn26P4vF6KLxeXFJKJ-2" target="q-Yn26P4vF6KLxeXFJKJ-15" edge="1">
          <mxGeometry relative="1" as="geometry">
            <mxPoint x="298" y="330" as="sourcePoint" />
            <mxPoint x="539" y="693" as="targetPoint" />
          </mxGeometry>
        </mxCell>
        <mxCell id="q-Yn26P4vF6KLxeXFJKJ-17" value="Accede" style="shape=rhombus;perimeter=rhombusPerimeter;whiteSpace=wrap;html=1;align=center;" parent="1" vertex="1">
          <mxGeometry x="350" y="290" width="120" height="60" as="geometry" />
        </mxCell>
        <mxCell id="q-Yn26P4vF6KLxeXFJKJ-18" value="" style="endArrow=none;html=1;rounded=0;" parent="1" source="q-Yn26P4vF6KLxeXFJKJ-2" target="q-Yn26P4vF6KLxeXFJKJ-17" edge="1">
          <mxGeometry relative="1" as="geometry">
            <mxPoint x="234" y="350" as="sourcePoint" />
            <mxPoint x="295" y="386" as="targetPoint" />
          </mxGeometry>
        </mxCell>
        <mxCell id="q-Yn26P4vF6KLxeXFJKJ-19" value="Médico" style="whiteSpace=wrap;html=1;align=center;" parent="1" vertex="1">
          <mxGeometry x="570" y="520" width="100" height="40" as="geometry" />
        </mxCell>
        <mxCell id="q-Yn26P4vF6KLxeXFJKJ-20" value="nombre" style="ellipse;whiteSpace=wrap;html=1;align=center;" parent="1" vertex="1">
          <mxGeometry x="690" y="577" width="100" height="40" as="geometry" />
        </mxCell>
        <mxCell id="q-Yn26P4vF6KLxeXFJKJ-21" value="" style="endArrow=none;html=1;rounded=0;" parent="1" source="q-Yn26P4vF6KLxeXFJKJ-19" target="q-Yn26P4vF6KLxeXFJKJ-20" edge="1">
          <mxGeometry relative="1" as="geometry">
            <mxPoint x="580" y="690" as="sourcePoint" />
            <mxPoint x="740" y="690" as="targetPoint" />
          </mxGeometry>
        </mxCell>
        <mxCell id="q-Yn26P4vF6KLxeXFJKJ-22" value="CodMedico" style="ellipse;whiteSpace=wrap;html=1;align=center;fontStyle=4;" parent="1" vertex="1">
          <mxGeometry x="710" y="520" width="100" height="40" as="geometry" />
        </mxCell>
        <mxCell id="q-Yn26P4vF6KLxeXFJKJ-23" value="" style="endArrow=none;html=1;rounded=0;" parent="1" source="q-Yn26P4vF6KLxeXFJKJ-22" target="q-Yn26P4vF6KLxeXFJKJ-19" edge="1">
          <mxGeometry relative="1" as="geometry">
            <mxPoint x="608" y="530" as="sourcePoint" />
            <mxPoint x="550" y="478" as="targetPoint" />
          </mxGeometry>
        </mxCell>
        <mxCell id="q-Yn26P4vF6KLxeXFJKJ-24" value="apellidos" style="ellipse;whiteSpace=wrap;html=1;align=center;" parent="1" vertex="1">
          <mxGeometry x="430" y="520" width="100" height="40" as="geometry" />
        </mxCell>
        <mxCell id="q-Yn26P4vF6KLxeXFJKJ-25" value="" style="endArrow=none;html=1;rounded=0;" parent="1" source="q-Yn26P4vF6KLxeXFJKJ-19" target="q-Yn26P4vF6KLxeXFJKJ-24" edge="1">
          <mxGeometry relative="1" as="geometry">
            <mxPoint x="584" y="640" as="sourcePoint" />
            <mxPoint x="726" y="810" as="targetPoint" />
          </mxGeometry>
        </mxCell>
        <mxCell id="q-Yn26P4vF6KLxeXFJKJ-26" value="teléfono" style="ellipse;whiteSpace=wrap;html=1;align=center;" parent="1" vertex="1">
          <mxGeometry x="450" y="577" width="100" height="40" as="geometry" />
        </mxCell>
        <mxCell id="q-Yn26P4vF6KLxeXFJKJ-27" value="" style="endArrow=none;html=1;rounded=0;" parent="1" source="q-Yn26P4vF6KLxeXFJKJ-19" target="q-Yn26P4vF6KLxeXFJKJ-26" edge="1">
          <mxGeometry relative="1" as="geometry">
            <mxPoint x="570" y="587" as="sourcePoint" />
            <mxPoint x="726" y="870" as="targetPoint" />
          </mxGeometry>
        </mxCell>
        <mxCell id="q-Yn26P4vF6KLxeXFJKJ-32" value="especialidad" style="ellipse;whiteSpace=wrap;html=1;align=center;" parent="1" vertex="1">
          <mxGeometry x="570" y="590" width="100" height="40" as="geometry" />
        </mxCell>
        <mxCell id="q-Yn26P4vF6KLxeXFJKJ-33" value="" style="endArrow=none;html=1;rounded=0;" parent="1" source="q-Yn26P4vF6KLxeXFJKJ-19" target="q-Yn26P4vF6KLxeXFJKJ-32" edge="1">
          <mxGeometry relative="1" as="geometry">
            <mxPoint x="728" y="550" as="sourcePoint" />
            <mxPoint x="969" y="913" as="targetPoint" />
          </mxGeometry>
        </mxCell>
        <mxCell id="q-Yn26P4vF6KLxeXFJKJ-34" value="Ingreso" style="whiteSpace=wrap;html=1;align=center;" parent="1" vertex="1">
          <mxGeometry x="570" y="300" width="100" height="40" as="geometry" />
        </mxCell>
        <mxCell id="q-Yn26P4vF6KLxeXFJKJ-35" value="" style="endArrow=none;html=1;rounded=0;" parent="1" source="q-Yn26P4vF6KLxeXFJKJ-17" target="q-Yn26P4vF6KLxeXFJKJ-34" edge="1">
          <mxGeometry relative="1" as="geometry">
            <mxPoint x="490" y="410" as="sourcePoint" />
            <mxPoint x="650" y="410" as="targetPoint" />
          </mxGeometry>
        </mxCell>
        <mxCell id="q-Yn26P4vF6KLxeXFJKJ-37" value="NumRegistro" style="ellipse;whiteSpace=wrap;html=1;align=center;fontStyle=4;" parent="1" vertex="1">
          <mxGeometry x="470" y="240" width="100" height="40" as="geometry" />
        </mxCell>
        <mxCell id="q-Yn26P4vF6KLxeXFJKJ-38" value="" style="endArrow=none;html=1;rounded=0;" parent="1" source="q-Yn26P4vF6KLxeXFJKJ-37" target="q-Yn26P4vF6KLxeXFJKJ-34" edge="1">
          <mxGeometry relative="1" as="geometry">
            <mxPoint x="440" y="460" as="sourcePoint" />
            <mxPoint x="600" y="460" as="targetPoint" />
          </mxGeometry>
        </mxCell>
        <mxCell id="q-Yn26P4vF6KLxeXFJKJ-39" value="NumCama" style="ellipse;whiteSpace=wrap;html=1;align=center;" parent="1" vertex="1">
          <mxGeometry x="670" y="240" width="100" height="40" as="geometry" />
        </mxCell>
        <mxCell id="q-Yn26P4vF6KLxeXFJKJ-40" value="" style="endArrow=none;html=1;rounded=0;" parent="1" source="q-Yn26P4vF6KLxeXFJKJ-34" target="q-Yn26P4vF6KLxeXFJKJ-39" edge="1">
          <mxGeometry relative="1" as="geometry">
            <mxPoint x="420" y="310" as="sourcePoint" />
            <mxPoint x="420" y="300" as="targetPoint" />
          </mxGeometry>
        </mxCell>
        <mxCell id="q-Yn26P4vF6KLxeXFJKJ-41" value="FechaIngreso" style="ellipse;whiteSpace=wrap;html=1;align=center;" parent="1" vertex="1">
          <mxGeometry x="690" y="300" width="100" height="40" as="geometry" />
        </mxCell>
        <mxCell id="q-Yn26P4vF6KLxeXFJKJ-42" value="" style="endArrow=none;html=1;rounded=0;" parent="1" source="q-Yn26P4vF6KLxeXFJKJ-34" target="q-Yn26P4vF6KLxeXFJKJ-41" edge="1">
          <mxGeometry relative="1" as="geometry">
            <mxPoint x="404" y="352" as="sourcePoint" />
            <mxPoint x="375" y="391" as="targetPoint" />
          </mxGeometry>
        </mxCell>
        <mxCell id="q-Yn26P4vF6KLxeXFJKJ-43" value="NumHabitacion" style="ellipse;whiteSpace=wrap;html=1;align=center;" parent="1" vertex="1">
          <mxGeometry x="570" y="210" width="100" height="40" as="geometry" />
        </mxCell>
        <mxCell id="q-Yn26P4vF6KLxeXFJKJ-44" value="" style="endArrow=none;html=1;rounded=0;" parent="1" source="q-Yn26P4vF6KLxeXFJKJ-34" target="q-Yn26P4vF6KLxeXFJKJ-43" edge="1">
          <mxGeometry relative="1" as="geometry">
            <mxPoint x="436" y="352" as="sourcePoint" />
            <mxPoint x="465" y="391" as="targetPoint" />
          </mxGeometry>
        </mxCell>
        <mxCell id="q-Yn26P4vF6KLxeXFJKJ-45" value="" style="endArrow=none;html=1;rounded=0;" parent="1" source="q-Yn26P4vF6KLxeXFJKJ-34" edge="1" target="kMywHeOW3mW8am20AHND-2">
          <mxGeometry relative="1" as="geometry">
            <mxPoint x="550" y="450" as="sourcePoint" />
            <mxPoint x="620" y="410" as="targetPoint" />
          </mxGeometry>
        </mxCell>
        <mxCell id="kMywHeOW3mW8am20AHND-2" value="Atiende" style="shape=rhombus;perimeter=rhombusPerimeter;whiteSpace=wrap;html=1;align=center;" vertex="1" parent="1">
          <mxGeometry x="560" y="400" width="120" height="60" as="geometry" />
        </mxCell>
        <mxCell id="kMywHeOW3mW8am20AHND-3" value="" style="endArrow=none;html=1;rounded=0;" edge="1" parent="1" source="kMywHeOW3mW8am20AHND-2" target="q-Yn26P4vF6KLxeXFJKJ-19">
          <mxGeometry relative="1" as="geometry">
            <mxPoint x="630" y="350" as="sourcePoint" />
            <mxPoint x="630" y="420" as="targetPoint" />
          </mxGeometry>
        </mxCell>
        <mxCell id="kMywHeOW3mW8am20AHND-4" value="(1,n)" style="text;html=1;align=center;verticalAlign=middle;whiteSpace=wrap;rounded=0;" vertex="1" parent="1">
          <mxGeometry x="230" y="320" width="60" height="30" as="geometry" />
        </mxCell>
        <mxCell id="kMywHeOW3mW8am20AHND-5" value="(1,1)" style="text;html=1;align=center;verticalAlign=middle;whiteSpace=wrap;rounded=0;" vertex="1" parent="1">
          <mxGeometry x="520" y="290" width="60" height="30" as="geometry" />
        </mxCell>
        <mxCell id="kMywHeOW3mW8am20AHND-6" value="(1,n)" style="text;html=1;align=center;verticalAlign=middle;whiteSpace=wrap;rounded=0;" vertex="1" parent="1">
          <mxGeometry x="610" y="490" width="60" height="30" as="geometry" />
        </mxCell>
        <mxCell id="kMywHeOW3mW8am20AHND-7" value="(1,1)" style="text;html=1;align=center;verticalAlign=middle;whiteSpace=wrap;rounded=0;" vertex="1" parent="1">
          <mxGeometry x="570" y="340" width="60" height="30" as="geometry" />
        </mxCell>
        <mxCell id="kMywHeOW3mW8am20AHND-9" value="1:N" style="text;html=1;align=center;verticalAlign=middle;whiteSpace=wrap;rounded=0;" vertex="1" parent="1">
          <mxGeometry x="680" y="415" width="60" height="30" as="geometry" />
        </mxCell>
        <mxCell id="kMywHeOW3mW8am20AHND-10" value="1:N" style="text;html=1;align=center;verticalAlign=middle;whiteSpace=wrap;rounded=0;" vertex="1" parent="1">
          <mxGeometry x="380" y="260" width="60" height="30" as="geometry" />
        </mxCell>
      </root>
    </mxGraphModel>
  </diagram>
</mxfile>
